# xmcd CD database file
#
# Track frame offsets:
#	150
#	17087
#	29365
#	41479
#	54417
#	65693
#	76957
#	92387
#	105240
#	120696
#	136731
#	147155
#
# Disc length: 2151 seconds
#
# Revision: 1
# Processed by: cddbd v1.5.2PL0 Copyright (c) Steve Scherf et al.
# Submitted via: CDex 1.70beta2
#
DISCID=9108650c
DTITLE=Fontella Bass - The New Look
DYEAR=1966
DGENRE=Soul
TTITLE0=Our Day Will Come (B.Hilliard-M.Garson)
TTITLE1=How Glad I Am (J.Williams-L.Harrison)
TTITLE2=Oh No, Not My Baby (Goffin-King)
TTITLE3=Rescue Me (Smith-Miner)
TTITLE4=Gee Whiz (Carla Thomas)
TTITLE5=I'm A Woman (Leiber-Stoller)
TTITLE6=Since I Fell For You (Buddy Johnson)
TTITLE7=Impossible (Fliip-Jones)
TTITLE8=You've Lost That Lovin' Feelin' (Mann-Weil-Spector)
TTITLE9=Soul Of The Man (Oliver Sain)
TTITLE10=Come And Get These Memories (Dozier-Holland)
TTITLE11=I Know
EXTD=YEAR: 1966
EXTT0=
EXTT1=
EXTT2=
EXTT3=
EXTT4=
EXTT5=
EXTT6=
EXTT7=
EXTT8=
EXTT9=
EXTT10=
EXTT11=
PLAYORDER=
